<?xml version="1.0"?>
<svg version="1.1" xmlns="http://www.w3.org/2000/svg" width="535" height="271" style=""><path fill="#" d=""/><path fill="#" d="M22.685546875,184.376953125q0-0.29296875,0.1953125-2.0751953125t0.5126953125-4.345703125t0.7080078125-5.517578125t0.68359375-5.5908203125t0.5126953125-4.638671875t0.2197265625-2.685546875q-0.390625-0.1953125-0.9521484375-0.5615234375t-0.5615234375-0.8544921875q0-0.68359375,0.6591796875-1.0986328125t1.1474609375-0.6103515625q0.1953125-2.490234375,0.48828125-6.93359375t0.9033203125-9.5947265625t1.708984375-10.44921875t2.9052734375-9.619140625t4.345703125-7.0556640625t6.25-2.734375t6.15234375,2.34375t3.9794921875,6.103515625t2.34375,8.349609375t1.220703125,9.130859375t0.5126953125,8.49609375t0.1953125,6.34765625q0.09765625,1.513671875,0.732421875,2.0263671875t1.3916015625,0.7080078125t1.3671875,0.439453125t0.6103515625,1.220703125q0,1.123046875-1.3671875,1.5625t-2.1484375,0.537109375q0.48828125,6.103515625,1.3427734375,12.01171875t2.2705078125,11.9140625q0.1953125,1.123046875,0.537109375,2.2705078125t0.341796875,2.2216796875q0,0.78125-0.537109375,1.2939453125t-1.3916015625,0.8056640625t-1.708984375,0.390625t-1.4404296875,0.09765625q-2.197265625,0-3.7109375-0.830078125t-2.001953125-3.173828125q-1.318359375-6.298828125-2.587890625-13.232421875q-1.07421875-6.005859375-1.07421875-11.669921875q0-0.87890625,0.048828125-1.7578125q-4.1015625,0-8.251953125,0.1953125t-7.958984375,1.46484375q-0.09765625,1.318359375-0.48828125,4.98046875t-0.87890625,7.861328125t-1.0009765625,8.0322265625t-0.6103515625,5.4443359375q-0.09765625,0.68359375-1.0009765625,1.2939453125t-1.953125,0.6591796875t-1.85546875-0.6591796875t-0.8056640625-2.5146484375z M31.81640625,154.787109375q3.80859375-0.87890625,7.6416015625-1.025390625t7.7392578125-0.341796875q-0.1953125-1.220703125-0.09765625-2.5146484375t0.09765625-2.6123046875q0-2.880859375-0.146484375-6.689453125t-0.439453125-7.71484375t-0.7568359375-7.6904296875t-1.0498046875-6.73828125t-1.2451171875-4.7119140625t-1.4404296875-1.7578125q-1.513671875,0.09765625-2.8564453125,2.6123046875t-2.44140625,6.396484375t-2.001953125,8.69140625t-1.513671875,9.3994140625t-1.0009765625,8.544921875t-0.48828125,6.15234375z M71.93701171875,141.115234375l0-3.759765625l0-3.857421875q0.048828125-3.90625,0.3173828125-7.4951171875t0.7568359375-5.9814453125q0.29296875-1.318359375,1.7578125-1.611328125t2.5390625-0.29296875q2.001953125,0,2.9541015625,0.48828125t1.2451171875,1.3916015625t0.244140625,2.1484375t-0.048828125,2.8564453125q0,2.294921875-0.09765625,6.396484375t-0.146484375,9.08203125l0,2.490234375q0,3.759765625,0.09765625,7.763671875q0.146484375,5.37109375,0.5615234375,10.2783203125t1.1474609375,8.837890625t2.05078125,6.0302734375q2.099609375-1.904296875,4.19921875-5.3466796875t4.00390625-7.7392578125t3.6376953125-9.0576171875t3.1494140625-9.3017578125t2.4169921875-8.544921875t1.4892578125-6.787109375q0.78125-4.00390625,1.0498046875-8.154296875t0.2685546875-9.228515625q1.513671875-1.806640625,2.34375-2.2705078125t2.63671875-0.4638671875q0.87890625,0,1.7822265625,0.146484375t1.7333984375,0.68359375l0.68359375,1.07421875l0,1.220703125q0,8.88671875-0.8544921875,18.0419921875t-1.806640625,18.408203125t-1.806640625,18.5546875t-0.8544921875,18.4814453125q0,1.416015625,0.1220703125,3.0029296875t0.5126953125,3.0029296875l-0.1953125,0.5859375q-0.68359375,1.123046875-2.24609375,1.416015625t-2.685546875,0.29296875q-2.392578125,0-3.5888671875-0.7080078125t-1.5869140625-1.953125t-0.341796875-2.880859375t0.048828125-3.5400390625q0-6.591796875,0.5859375-13.4033203125t1.416015625-13.4033203125q-0.78125,2.294921875-1.85546875,5.5419921875t-2.5146484375,6.494140625t-3.3447265625,5.95703125t-4.19921875,3.8818359375l0.09765625-0.09765625l-0.390625,0.1953125l0.09765625,0q-1.416015625,0.78125-2.6123046875,1.0498046875t-2.8076171875,0.2685546875q-3.22265625,0-5.3466796875-1.904296875t-3.4423828125-4.9072265625t-1.953125-6.73828125t-0.9033203125-7.4951171875t-0.2685546875-7.1533203125l0-5.5908203125q0-2.685546875-0.048828125-6.396484375z M89.31982421875,179.982421875q0.09765625,0,0.09765625-0.09765625l0.09765625,0q-0.09765625,0.09765625-0.1953125,0.09765625z M121.7255859375,116.017578125q0-0.68359375,0.9521484375-1.0498046875t1.2451171875-0.3662109375l1.806640625-0.29296875q1.806640625-0.29296875,3.662109375-0.5126953125t3.61328125-0.4150390625q6.201171875-0.78125,12.40234375-1.5380859375t12.5-0.7568359375q0.48828125,0,1.3427734375,0.048828125t1.708984375,0.2685546875t1.46484375,0.6103515625t0.6103515625,1.07421875q0,0.48828125-0.4638671875,0.8544921875t-1.0986328125,0.5615234375t-1.2939453125,0.244140625t-1.0498046875,0.048828125l-0.8544921875,0t-0.8544921875-0.1953125q-2.587890625,0-5.1025390625,0.244140625t-5.1025390625,0.439453125q0.68359375,0.78125,0.732421875,2.197265625t0.09765625,2.44140625q0,17.28515625,0.244140625,34.375t0.439453125,34.521484375l0,0.09765625q-1.611328125,1.416015625-2.7587890625,1.806640625t-2.3193359375,0.390625q-1.123046875,0-2.2705078125-0.4150390625t-2.7587890625-1.7822265625l0-0.09765625l0.390625-38.330078125q0-3.80859375-0.09765625-8.3984375t-0.09765625-9.3017578125t0.146484375-9.1064453125t0.78125-7.666015625q-2.880859375,0.29296875-6.103515625,0.87890625q-2.783203125,0.48828125-5.322265625,0.48828125l-0.87890625,0q-0.1953125,0-1.1474609375,0.048828125t-1.953125-0.048828125t-1.806640625-0.390625t-0.8056640625-0.9765625z M170.00048828125,150.978515625q0-2.880859375,0.3173828125-6.982421875t1.171875-8.544921875t2.294921875-8.837890625t3.6865234375-7.763671875t5.37109375-5.322265625q2.587890625-1.611328125,5.95703125-1.611328125q0.68359375,0,1.416015625,0.09765625q8.49609375,0.78125,13.0615234375,3.8818359375t6.6650390625,7.861328125t2.44140625,10.83984375t0.341796875,12.8173828125q0,5.419921875-1.0009765625,11.7919921875t-3.5400390625,11.8896484375t-7.0068359375,9.2041015625t-11.3525390625,3.6865234375q-4.19921875,0-7.3486328125-1.5380859375t-5.3466796875-4.1015625t-3.61328125-5.95703125t-2.1484375-7.03125t-1.0498046875-7.3486328125t-0.3173828125-7.03125z M179.91259765625,148.78125q0,2.099609375,0.048828125,5.1513671875t0.4150390625,6.4208984375t0.9521484375,6.7138671875t1.7333984375,6.0791015625t2.9052734375,4.4921875t4.248046875,1.85546875l0.244140625,0q2.24609375,0,4.00390625-1.708984375q1.85546875-1.806640625,3.2958984375-4.345703125t2.490234375-5.3466796875t1.8798828125-4.8095703125l-0.1953125,0.439453125q1.416015625-4.4921875,1.904296875-9.2041015625t0.48828125-9.3017578125q0-2.197265625-0.29296875-5.2978515625t-0.9521484375-6.4697265625t-1.708984375-6.6650390625t-2.6611328125-5.7373046875t-3.759765625-3.7109375q-1.5625-0.927734375-3.466796875-0.9765625q-0.732421875,0-1.46484375,0.146484375q-2.490234375,0.48828125-4.248046875,2.44140625t-2.8564453125,4.8095703125t-1.6845703125,6.25t-0.9033203125,6.8359375t-0.3662109375,6.591796875t-0.048828125,5.3466796875z M201.93408203125,163.8203125l0-0.09765625l0,0.09765625z M222.9140625,177.58984375q-0.048828125-1.46484375-0.048828125-2.9296875q0-4.58984375,0.48828125-9.228515625q0.5859375-6.15234375,0.78125-12.109375q0.1953125-6.982421875,0.5859375-14.501953125q0.244140625-4.1015625,0.244140625-8.10546875q0-3.271484375-0.146484375-6.494140625q0.48828125-1.123046875,1.2939453125-1.513671875t2.0263671875-0.390625q0.5859375,0,1.2451171875,0.09765625t1.1474609375,0.48828125q0.68359375,0.09765625,1.6845703125,0.1953125t1.5380859375,0.5859375q0.1953125,0.29296875,1.0009765625,2.001953125t1.904296875,4.150390625t2.294921875,5.2978515625t2.294921875,5.419921875t1.904296875,4.5166015625t1.0009765625,2.44140625q4.58984375-8.30078125,8.984375-17.0654296875t9.619140625-16.5283203125q0.48828125-0.68359375,1.6845703125-1.0009765625t1.9775390625-0.3173828125q2.099609375,0,3.0517578125,1.0009765625t1.2451171875,2.5634765625q0.1953125,0.9765625,0.244140625,2.099609375q0.048828125,0.5859375-0.048828125,1.220703125q-0.1953125,1.806640625-0.1953125,3.41796875q0,11.376953125-0.78125,22.5830078125t-1.416015625,22.6318359375q-0.09765625,2.34375-0.09765625,4.8828125t0.09765625,5.2734375q0.048828125,0.9765625,0.048828125,1.904296875q0,4.296875-0.732421875,8.0078125q-0.68359375,1.123046875-2.24609375,1.416015625t-2.63671875,0.29296875q-2.294921875,0-4.39453125-1.07421875l-0.537109375-0.634765625l-0.1953125-0.78125t-0.09765625-0.78125q0-7.080078125,0.5126953125-14.2578125t1.1474609375-14.3310546875t1.3427734375-14.2822265625t1.1962890625-14.2578125q-2.880859375,4.78515625-5.5908203125,9.7412109375t-5.1025390625,10.0830078125q-0.87890625,2.001953125-1.6845703125,4.296875t-1.9287109375,4.1015625q-0.5859375,0.87890625-1.9775390625,1.07421875t-2.4169921875,0.1953125q-0.9765625,0-2.0263671875-0.341796875t-1.4404296875-1.46484375q-1.806640625-5.517578125-3.857421875-10.791015625t-4.150390625-10.693359375q0,3.61328125,0.146484375,9.3505859375t0.146484375,11.8896484375t-0.1953125,11.767578125t-0.927734375,8.88671875q-0.1953125,1.220703125-1.5869140625,1.513671875t-2.4169921875,0.29296875q-0.78125,0-1.4892578125-0.09765625t-1.3916015625-0.390625z M280.90576171875,150.978515625q0-2.880859375,0.3173828125-6.982421875t1.171875-8.544921875t2.294921875-8.837890625t3.6865234375-7.763671875t5.37109375-5.322265625q2.587890625-1.611328125,5.95703125-1.611328125q0.68359375,0,1.416015625,0.09765625q8.49609375,0.78125,13.0615234375,3.8818359375t6.6650390625,7.861328125t2.44140625,10.83984375t0.341796875,12.8173828125q0,5.419921875-1.0009765625,11.7919921875t-3.5400390625,11.8896484375t-7.0068359375,9.2041015625t-11.3525390625,3.6865234375q-4.19921875,0-7.3486328125-1.5380859375t-5.3466796875-4.1015625t-3.61328125-5.95703125t-2.1484375-7.03125t-1.0498046875-7.3486328125t-0.3173828125-7.03125z M290.81787109375,148.78125q0,2.099609375,0.048828125,5.1513671875t0.4150390625,6.4208984375t0.9521484375,6.7138671875t1.7333984375,6.0791015625t2.9052734375,4.4921875t4.248046875,1.85546875l0.244140625,0q2.24609375,0,4.00390625-1.708984375q1.85546875-1.806640625,3.2958984375-4.345703125t2.490234375-5.3466796875t1.8798828125-4.8095703125l-0.1953125,0.439453125q1.416015625-4.4921875,1.904296875-9.2041015625t0.48828125-9.3017578125q0-2.197265625-0.29296875-5.2978515625t-0.9521484375-6.4697265625t-1.708984375-6.6650390625t-2.6611328125-5.7373046875t-3.759765625-3.7109375q-1.5625-0.927734375-3.466796875-0.9765625q-0.732421875,0-1.46484375,0.146484375q-2.490234375,0.48828125-4.248046875,2.44140625t-2.8564453125,4.8095703125t-1.6845703125,6.25t-0.9033203125,6.8359375t-0.3662109375,6.591796875t-0.048828125,5.3466796875z M312.83935546875,163.8203125l0-0.09765625l0,0.09765625z M333.7216796875,117.384765625q0-0.78125,0.5615234375-1.2939453125t1.318359375-0.8056640625t1.66015625-0.390625t1.5869140625-0.09765625q1.416015625,0,3.0029296875,0.390625t2.3681640625,1.708984375q1.416015625,2.392578125,2.0751953125,5.6884765625t1.2451171875,6.3232421875q0.87890625,4.19921875,2.24609375,8.7890625t2.8564453125,9.3505859375t3.0517578125,9.3505859375t2.734375,8.59375q1.416015625-5.908203125,2.6123046875-12.109375t2.294921875-12.40234375t2.294921875-12.40234375t2.6123046875-12.158203125q0.29296875-1.416015625,0.439453125-3.564453125t0.6103515625-4.150390625t1.3427734375-3.4423828125t2.685546875-1.4404296875q1.904296875,0,2.5634765625,1.0498046875t0.6591796875,3.0517578125q-0.48828125,5.517578125-1.5869140625,10.9375t-2.0263671875,10.83984375q-1.318359375,6.689453125-2.8564453125,13.4033203125t-2.880859375,13.4521484375t-2.294921875,13.5009765625t-1.1474609375,13.5498046875q0.09765625,0.29296875,0.29296875,0.68359375t0.1953125,0.5859375q0,0.5859375-0.537109375,1.0986328125t-1.3427734375,0.87890625t-1.7578125,0.5615234375t-1.7822265625,0.1953125q-0.78125,0-1.7822265625-0.09765625t-2.001953125-0.3662109375t-1.7578125-0.7080078125t-0.9521484375-1.123046875q-0.78125-2.294921875-1.4404296875-4.4677734375t-1.2451171875-4.4677734375q-2.783203125-10.009765625-5.8349609375-19.6533203125t-5.6396484375-19.6044921875q-1.220703125-4.4921875-1.8310546875-8.8134765625t-1.9775390625-8.5205078125q0.1953125,0.390625,0.1953125,0.634765625q-0.1953125-0.68359375-0.390625-1.2939453125t-0.439453125-1.3427734375q0,0.1953125,0.048828125,0.244140625t0.048828125,0.146484375q0-0.09765625-0.048828125-0.146484375t-0.048828125-0.146484375z"/></svg>
